<svg id="Layer_1" height="512" viewBox="0 0 128 128" width="512" xmlns="http://www.w3.org/2000/svg" data-name="Layer 1"><path d="m6.5 58h115v12h-115z" fill="#e6e7e8"/><path d="m106.808 41.849h6a0 0 0 0 1 0 0v44.3a0 0 0 0 1 0 0h-6a6 6 0 0 1 -6-6v-32.3a6 6 0 0 1 6-6z" fill="#394852" transform="matrix(-1 0 0 -1 213.615 128)"/><path d="m88.808 92.75h6a6 6 0 0 0 6-6v-45.5a6 6 0 0 0 -6-6h-6z" fill="#546a79"/><path d="m21.192 41.849h6a0 0 0 0 1 0 0v44.3a0 0 0 0 1 0 0h-6a6 6 0 0 1 -6-6v-32.3a6 6 0 0 1 6-6z" fill="#394852"/><path d="m39.192 92.75h-6a6 6 0 0 1 -6-6v-45.5a6 6 0 0 1 6-6h6z" fill="#546a79"/><g fill="#241429"><path d="m121.5 56.25h-6.942v-2.417a1.75 1.75 0 0 0 -3.5 0v26.318a4.254 4.254 0 0 1 -4.25 4.25h-4.25v-40.801h4.25a4.262 4.262 0 0 1 4.1 3.115 1.75 1.75 0 1 0 3.373-.934 7.771 7.771 0 0 0 -7.471-5.682h-4.345a7.755 7.755 0 0 0 -7.655-6.6h-6a1.75 1.75 0 0 0 -1.75 1.75v33h-46.118v-8.5h38.808a1.75 1.75 0 0 0 0-3.5h-38.808v-21a1.75 1.75 0 0 0 -1.75-1.75h-6a7.755 7.755 0 0 0 -7.655 6.6h-4.345a7.759 7.759 0 0 0 -7.75 7.75v8.4h-6.942a1.75 1.75 0 0 0 -1.75 1.751v12a1.75 1.75 0 0 0 1.75 1.75h6.942v8.4a7.759 7.759 0 0 0 7.75 7.75h4.345a7.755 7.755 0 0 0 7.655 6.6h6a1.75 1.75 0 0 0 1.75-1.75v-21h46.116v21a1.75 1.75 0 0 0 1.75 1.75h6a7.755 7.755 0 0 0 7.655-6.6h4.345a7.759 7.759 0 0 0 7.75-7.75v-8.4h6.942a1.75 1.75 0 0 0 1.75-1.75v-12a1.75 1.75 0 0 0 -1.75-1.75zm-113.25 12v-8.5h5.192v8.5zm24.942 22.75a4.254 4.254 0 0 1 -4.25-4.25v-5.062a1.75 1.75 0 0 0 -3.5 0v2.712h-4.25a4.254 4.254 0 0 1 -4.25-4.25v-32.3a4.254 4.254 0 0 1 4.25-4.25h4.25v20.9a1.75 1.75 0 0 0 3.5 0v-23.25a4.254 4.254 0 0 1 4.25-4.25h4.25v20.981.019.019 11.962.019.019 20.981zm65.865-4.25a4.254 4.254 0 0 1 -4.249 4.25h-4.25v-20.981-.019-.019-32.981h4.25a4.254 4.254 0 0 1 4.25 4.25v45.5zm20.692-18.5h-5.192v-8.5h5.192z"/><path d="m27.192 69.688a1.75 1.75 0 0 0 -1.75 1.75v3.749a1.75 1.75 0 0 0 3.5 0v-3.749a1.75 1.75 0 0 0 -1.75-1.75z"/></g></svg>